<svg width="23" height="21" viewBox="0 0 23 21" fill="none" xmlns="http://www.w3.org/2000/svg">
<path d="M1.41726 5.25021H20.2635L20.3435 5.2524C21.0569 5.27787 21.7322 5.56527 22.2276 6.05427C22.7229 6.54326 22.9998 7.19579 23 7.87481V18.375C23 19.0712 22.7092 19.7389 22.1916 20.2311C21.674 20.7234 20.972 21 20.24 21H2.76C2.028 21 1.32599 20.7234 0.808385 20.2311C0.290785 19.7389 0 19.0712 0 18.375V7.87481L0.00138001 7.78513L0.00598001 7.70637C-0.0259045 7.21205 0.0896436 6.71921 0.339321 6.2846C0.588998 5.84999 0.962651 5.49172 1.41726 5.25021ZM15.64 11.3749C15.152 11.3749 14.684 11.5592 14.3389 11.8874C13.9939 12.2156 13.8 12.6608 13.8 13.1249C13.8 13.589 13.9939 14.0341 14.3389 14.3623C14.684 14.6905 15.152 14.8749 15.64 14.8749C16.128 14.8749 16.596 14.6905 16.9411 14.3623C17.2861 14.0341 17.48 13.589 17.48 13.1249C17.48 12.6608 17.2861 12.2156 16.9411 11.8874C16.596 11.5592 16.128 11.3749 15.64 11.3749ZM20.1696 1.9466C20.232 2.16777 20.2637 2.39575 20.2639 2.62474L20.2635 3.93726H5.25504L16.7895 0.0893908C17.4966 -0.0907324 18.2499 0.00365128 18.8838 0.351779C19.5177 0.699908 19.9802 1.27327 20.1696 1.94573" fill="white"/>
</svg>
