<svg width="21" height="21" viewBox="0 0 21 21" fill="none" xmlns="http://www.w3.org/2000/svg">
<path fill-rule="evenodd" clip-rule="evenodd" d="M4.55809 0.327383C8.50727 -0.109128 12.4927 -0.109128 16.4418 0.327383C18.6284 0.572046 20.3925 2.29106 20.649 4.48155C21.117 8.48025 21.117 12.5197 20.649 16.5184C20.3925 18.7089 18.6284 20.428 16.4418 20.6726C12.4927 21.1091 8.50727 21.1091 4.55809 20.6726C2.37153 20.428 0.607474 18.7089 0.350907 16.5184C-0.116969 12.5202 -0.116969 8.4811 0.350907 4.48283C0.480681 3.41863 0.966641 2.42937 1.73003 1.67538C2.49341 0.921383 3.48948 0.44684 4.55681 0.328657M10.5 4.1375C10.7539 4.1375 10.9974 4.23819 11.1769 4.41742C11.3564 4.59665 11.4573 4.83974 11.4573 5.09321V9.54429H15.9159C16.1698 9.54429 16.4133 9.64498 16.5929 9.82421C16.7724 10.0034 16.8733 10.2465 16.8733 10.5C16.8733 10.7535 16.7724 10.9966 16.5929 11.1758C16.4133 11.355 16.1698 11.4557 15.9159 11.4557H11.4573V15.9068C11.4573 16.1603 11.3564 16.4034 11.1769 16.5826C10.9974 16.7618 10.7539 16.8625 10.5 16.8625C10.2461 16.8625 10.0026 16.7618 9.82302 16.5826C9.64349 16.4034 9.54263 16.1603 9.54263 15.9068V11.4557H5.08398C4.83008 11.4557 4.58658 11.355 4.40704 11.1758C4.22751 10.9966 4.12665 10.7535 4.12665 10.5C4.12665 10.2465 4.22751 10.0034 4.40704 9.82421C4.58658 9.64498 4.83008 9.54429 5.08398 9.54429H9.54263V5.09321C9.54263 4.83974 9.64349 4.59665 9.82302 4.41742C10.0026 4.23819 10.2461 4.1375 10.5 4.1375Z" fill="white"/>
</svg>
