<svg width="29" height="29" viewBox="0 0 29 29" fill="none" xmlns="http://www.w3.org/2000/svg">
<path d="M12.0835 4.83301H16.9168C21.4735 4.83301 23.7524 4.83301 25.1673 6.24917C26.1872 7.2678 26.4723 8.73472 26.5521 11.1768H2.44824C2.52799 8.73472 2.81316 7.2678 3.83299 6.24917C5.24795 4.83301 7.52687 4.83301 12.0835 4.83301Z" fill="white"/>
<path fill-rule="evenodd" clip-rule="evenodd" d="M26.5832 15.4881L26.089 14.9939C25.8365 14.7414 25.5368 14.5412 25.2069 14.4045C24.8771 14.2679 24.5235 14.1976 24.1665 14.1976C23.8095 14.1976 23.4559 14.2679 23.1261 14.4045C22.7962 14.5412 22.4965 14.7414 22.244 14.9939L21.2762 15.9618C21.0521 15.3657 20.626 14.8672 20.0721 14.553C19.5182 14.2389 18.8716 14.1291 18.2451 14.2426C17.6185 14.3562 17.0516 14.686 16.6433 15.1746C16.2349 15.6632 16.0109 16.2796 16.0103 16.9163V19.0478C15.5015 19.1047 15.0191 19.3041 14.6186 19.6231C14.2182 19.942 13.9159 20.3675 13.7466 20.8507C13.5773 21.3338 13.5479 21.855 13.6617 22.3541C13.7755 22.8532 14.0279 23.3101 14.3899 23.6721L14.8841 24.1663H12.0832C7.52655 24.1663 5.24763 24.1663 3.83267 22.7502C2.41771 21.334 2.4165 19.0563 2.4165 14.4997C2.4165 13.9664 2.41731 13.4629 2.41892 12.9893H26.5808C26.5824 13.4629 26.5832 13.9664 26.5832 14.4997V15.4881ZM7.24984 18.4268C7.00948 18.4268 6.77898 18.5222 6.60902 18.6922C6.43907 18.8621 6.34359 19.0927 6.34359 19.333C6.34359 19.5734 6.43907 19.8039 6.60902 19.9738C6.77898 20.1438 7.00948 20.2393 7.24984 20.2393H12.0832C12.3235 20.2393 12.554 20.1438 12.724 19.9738C12.8939 19.8039 12.9894 19.5734 12.9894 19.333C12.9894 19.0927 12.8939 18.8621 12.724 18.6922C12.554 18.5222 12.3235 18.4268 12.0832 18.4268H7.24984Z" fill="white"/>
<path fill-rule="evenodd" clip-rule="evenodd" d="M18.7293 16.0107C18.9697 16.0107 19.2002 16.1062 19.3701 16.2762C19.5401 16.4461 19.6356 16.6766 19.6356 16.917V21.9799L20.5056 21.1099C20.5885 21.0209 20.6886 20.9495 20.7997 20.8999C20.9109 20.8504 21.0309 20.8238 21.1526 20.8216C21.2743 20.8195 21.3951 20.8418 21.508 20.8874C21.6208 20.933 21.7233 21.0008 21.8094 21.0869C21.8955 21.173 21.9633 21.2755 22.0089 21.3883C22.0545 21.5012 22.0768 21.622 22.0747 21.7437C22.0725 21.8654 22.0459 21.9854 21.9964 22.0966C21.9468 22.2077 21.8754 22.3078 21.7864 22.3907L19.3697 24.8074C19.1998 24.9771 18.9695 25.0724 18.7293 25.0724C18.4892 25.0724 18.2588 24.9771 18.0889 24.8074L15.6722 22.3907C15.5832 22.3078 15.5118 22.2077 15.4622 22.0966C15.4127 21.9854 15.3861 21.8654 15.3839 21.7437C15.3818 21.622 15.4042 21.5012 15.4497 21.3883C15.4953 21.2755 15.5632 21.173 15.6492 21.0869C15.7353 21.0008 15.8378 20.933 15.9506 20.8874C16.0635 20.8418 16.1843 20.8195 16.306 20.8216C16.4277 20.8238 16.5477 20.8504 16.6589 20.8999C16.77 20.9495 16.8701 21.0209 16.9531 21.1099L17.8231 21.9799V16.917C17.8231 16.6766 17.9185 16.4461 18.0885 16.2762C18.2585 16.1062 18.489 16.0107 18.7293 16.0107ZM23.5264 16.2766C23.6963 16.1069 23.9267 16.0115 24.1668 16.0115C24.407 16.0115 24.6373 16.1069 24.8072 16.2766L27.2239 18.6932C27.3129 18.7762 27.3843 18.8763 27.4339 18.9874C27.4834 19.0986 27.51 19.2186 27.5122 19.3403C27.5143 19.462 27.492 19.5828 27.4464 19.6957C27.4008 19.8085 27.333 19.911 27.2469 19.9971C27.1608 20.0831 27.0583 20.151 26.9455 20.1966C26.8326 20.2421 26.7118 20.2645 26.5901 20.2624C26.4684 20.2602 26.3484 20.2336 26.2372 20.1841C26.1261 20.1345 26.026 20.0631 25.9431 19.9741L25.0731 19.1041V24.167C25.0731 24.4073 24.9776 24.6379 24.8076 24.8078C24.6377 24.9778 24.4072 25.0732 24.1668 25.0732C23.9265 25.0732 23.696 24.9778 23.526 24.8078C23.356 24.6379 23.2606 24.4073 23.2606 24.167V19.1041L22.3906 19.9741C22.3076 20.0631 22.2075 20.1345 22.0964 20.1841C21.9852 20.2336 21.8652 20.2602 21.7435 20.2624C21.6218 20.2645 21.501 20.2421 21.3881 20.1966C21.2753 20.151 21.1728 20.0831 21.0867 19.9971C21.0007 19.911 20.9328 19.8085 20.8872 19.6957C20.8417 19.5828 20.8193 19.462 20.8214 19.3403C20.8236 19.2186 20.8502 19.0986 20.8997 18.9874C20.9493 18.8763 21.0207 18.7762 21.1097 18.6932L23.5264 16.2766Z" fill="white"/>
</svg>
