<svg width="24" height="24" viewBox="0 0 24 24" fill="none" xmlns="http://www.w3.org/2000/svg">
<path d="M10.7475 4.49906H14.505L18.6258 0.370103C18.7422 0.25283 18.8807 0.159748 19.0333 0.0962259C19.186 0.0327041 19.3497 0 19.515 0C19.6804 0 19.8441 0.0327041 19.9967 0.0962259C20.1493 0.159748 20.2879 0.25283 20.4043 0.370103L23.6358 3.61071C23.8691 3.84514 24 4.16225 24 4.4928C24 4.82335 23.8691 5.14047 23.6358 5.3749L20.7675 8.25266H10.7475V10.7551C10.7475 11.0869 10.6155 11.4051 10.3806 11.6398C10.1458 11.8744 9.82717 12.0063 9.49499 12.0063C9.1628 12.0063 8.84422 11.8744 8.60933 11.6398C8.37444 11.4051 8.24248 11.0869 8.24248 10.7551V7.00146C8.24248 6.33778 8.5064 5.70129 8.97618 5.232C9.44596 4.7627 10.0831 4.49906 10.7475 4.49906ZM3.23246 10.7551V15.7599L0.36422 18.6251C0.130939 18.8595 0 19.1766 0 19.5072C0 19.8377 0.130939 20.1549 0.36422 20.3893L3.59568 23.6299C3.71212 23.7472 3.85065 23.8403 4.00328 23.9038C4.15591 23.9673 4.31962 24 4.48496 24C4.65031 24 4.81402 23.9673 4.96665 23.9038C5.11928 23.8403 5.25781 23.7472 5.37424 23.6299L10.7475 18.2623H15.7575C16.0897 18.2623 16.4083 18.1304 16.6432 17.8958C16.8781 17.6611 17.01 17.3429 17.01 17.0111V15.7599H18.2625C18.5947 15.7599 18.9133 15.628 19.1482 15.3934C19.3831 15.1587 19.515 14.8405 19.515 14.5087V13.2575H20.7675C21.0997 13.2575 21.4183 13.1256 21.6532 12.891C21.8881 12.6563 22.02 12.3381 22.02 12.0063V10.7551H13.2525V12.0063C13.2525 12.6699 12.9886 13.3064 12.5188 13.7757C12.049 14.245 11.4119 14.5087 10.7475 14.5087H8.24248C7.57811 14.5087 6.94095 14.245 6.47117 13.7757C6.00139 13.3064 5.73747 12.6699 5.73747 12.0063V8.25266L3.23246 10.7551Z" fill="white"/>
</svg>
