<svg width="24" height="34" viewBox="0 0 24 34" fill="none" xmlns="http://www.w3.org/2000/svg">
<mask id="path-1-inside-1_4152_17" fill="white">
<path fill-rule="evenodd" clip-rule="evenodd" d="M3.01 13.496C2.67933 13.8187 2.23085 14 1.76322 14C1.29558 14 0.847102 13.8187 0.516434 13.496C0.185767 13.1734 0 12.7357 0 12.2794C0 11.823 0.185767 11.3854 0.516434 11.0627L6.38997 5.33272L6.40231 5.32069C6.8822 4.86201 7.52718 4.60512 8.19891 4.60512C8.87064 4.60512 9.51561 4.86201 9.99551 5.32069L10.0078 5.33272L13.0054 8.2579L17.1414 3.98965L15.3086 2.20119C15.124 2.02082 14.9984 1.79111 14.9475 1.54107C14.8965 1.29103 14.9227 1.03188 15.0227 0.796342C15.1226 0.56081 15.2918 0.35946 15.509 0.217724C15.7261 0.0759887 15.9814 0.000224224 16.2426 0H22.6783C23.0289 0 23.365 0.135885 23.6129 0.377761C23.8608 0.619638 24 0.947694 24 1.28976V7.57002C23.9998 7.82495 23.9221 8.07409 23.7769 8.28598C23.6316 8.49788 23.4253 8.66301 23.184 8.76054C22.9426 8.85806 22.677 8.8836 22.4208 8.83393C22.1646 8.78426 21.9292 8.6616 21.7443 8.48146L19.6349 6.42128L14.8699 11.3413C14.6344 11.5784 14.3532 11.7678 14.0425 11.8986C13.7318 12.0293 13.3977 12.0989 13.0594 12.1032C12.721 12.1075 12.3851 12.0465 12.071 11.9237C11.7569 11.8009 11.4708 11.6188 11.2291 11.3877L11.2167 11.3757L8.19802 8.43158L3.01 13.496Z"/>
</mask>
<path fill-rule="evenodd" clip-rule="evenodd" d="M3.01 13.496C2.67933 13.8187 2.23085 14 1.76322 14C1.29558 14 0.847102 13.8187 0.516434 13.496C0.185767 13.1734 0 12.7357 0 12.2794C0 11.823 0.185767 11.3854 0.516434 11.0627L6.38997 5.33272L6.40231 5.32069C6.8822 4.86201 7.52718 4.60512 8.19891 4.60512C8.87064 4.60512 9.51561 4.86201 9.99551 5.32069L10.0078 5.33272L13.0054 8.2579L17.1414 3.98965L15.3086 2.20119C15.124 2.02082 14.9984 1.79111 14.9475 1.54107C14.8965 1.29103 14.9227 1.03188 15.0227 0.796342C15.1226 0.56081 15.2918 0.35946 15.509 0.217724C15.7261 0.0759887 15.9814 0.000224224 16.2426 0H22.6783C23.0289 0 23.365 0.135885 23.6129 0.377761C23.8608 0.619638 24 0.947694 24 1.28976V7.57002C23.9998 7.82495 23.9221 8.07409 23.7769 8.28598C23.6316 8.49788 23.4253 8.66301 23.184 8.76054C22.9426 8.85806 22.677 8.8836 22.4208 8.83393C22.1646 8.78426 21.9292 8.6616 21.7443 8.48146L19.6349 6.42128L14.8699 11.3413C14.6344 11.5784 14.3532 11.7678 14.0425 11.8986C13.7318 12.0293 13.3977 12.0989 13.0594 12.1032C12.721 12.1075 12.3851 12.0465 12.071 11.9237C11.7569 11.8009 11.4708 11.6188 11.2291 11.3877L11.2167 11.3757L8.19802 8.43158L3.01 13.496Z" fill="white"/>
<path d="M3.01 13.496L9.99412 20.653L9.99533 20.6518L3.01 13.496ZM0 12.2794H-10H0ZM0.516434 11.0627L-6.46661 3.90468L-6.46769 3.90573L0.516434 11.0627ZM6.38997 5.33272L13.373 12.4907L13.3741 12.4897L6.38997 5.33272ZM6.40231 5.32069L-0.507155 -1.90838L-0.544672 -1.87252L-0.581814 -1.83627L6.40231 5.32069ZM8.19891 4.60512V14.6051V4.60512ZM9.99551 5.32069L16.9796 -1.83627L16.9425 -1.87252L16.905 -1.90838L9.99551 5.32069ZM10.0078 5.33272L3.02372 12.4897H3.02372L10.0078 5.33272ZM13.0054 8.2579L6.02129 15.4149L13.2035 22.4236L20.1869 15.2168L13.0054 8.2579ZM17.1414 3.98965L24.3228 10.9486L31.2573 3.7923L24.1255 -3.16731L17.1414 3.98965ZM15.3086 2.20119L8.32008 9.35381L8.32453 9.35815L15.3086 2.20119ZM16.2426 0V-10L16.2341 -10L16.2426 0ZM24 7.57002L34 7.57904V7.57002H24ZM21.7443 8.48146L14.7572 15.6355L14.7647 15.6428L21.7443 8.48146ZM19.6349 6.42128L26.622 -0.732765L19.438 -7.7492L12.4517 -0.535797L19.6349 6.42128ZM14.8699 11.3413L21.9663 18.3868L22.01 18.3429L22.0531 18.2984L14.8699 11.3413ZM11.2291 11.3877L4.24495 18.5447L4.28184 18.5807L4.3191 18.6163L11.2291 11.3877ZM11.2167 11.3757L18.2009 4.21871L18.1988 4.21668L11.2167 11.3757ZM8.19802 8.43158L15.1801 1.27259L8.1948 -5.54L1.21269 1.27581L8.19802 8.43158ZM3.01 13.496L-3.97412 6.33908C-2.4117 4.81439 -0.343515 4 1.76322 4V14V24C4.80522 24 7.77036 22.823 9.99412 20.653L3.01 13.496ZM1.76322 14V4C3.86995 4 5.93813 4.81439 7.50055 6.33908L0.516434 13.496L-6.46769 20.653C-4.24393 22.823 -1.27878 24 1.76322 24V14ZM0.516434 13.496L7.50055 6.33908C9.07128 7.87187 10 10.0036 10 12.2794H0H-10C-10 15.4679 -8.69974 18.4748 -6.46769 20.653L0.516434 13.496ZM0 12.2794H10C10 14.5552 9.07129 16.6869 7.50055 18.2197L0.516434 11.0627L-6.46769 3.90573C-8.69975 6.08389 -10 9.09089 -10 12.2794H0ZM0.516434 11.0627L7.49948 18.2207L13.373 12.4907L6.38997 5.33272L-0.593076 -1.82528L-6.46661 3.90468L0.516434 11.0627ZM6.38997 5.33272L13.3741 12.4897L13.3864 12.4776L6.40231 5.32069L-0.581814 -1.83627L-0.59415 -1.82424L6.38997 5.33272ZM6.40231 5.32069L13.3118 12.5497C11.9064 13.893 10.067 14.6051 8.19891 14.6051V4.60512V-5.39488C4.98739 -5.39488 1.85799 -4.16896 -0.507155 -1.90838L6.40231 5.32069ZM8.19891 4.60512V14.6051C6.33085 14.6051 4.49141 13.893 3.08605 12.5497L9.99551 5.32069L16.905 -1.90838C14.5398 -4.16896 11.4104 -5.39488 8.19891 -5.39488V4.60512ZM9.99551 5.32069L3.01139 12.4776L3.02372 12.4897L10.0078 5.33272L16.992 -1.82424L16.9796 -1.83627L9.99551 5.32069ZM10.0078 5.33272L3.02372 12.4897L6.02129 15.4149L13.0054 8.2579L19.9895 1.10094L16.992 -1.82424L10.0078 5.33272ZM13.0054 8.2579L20.1869 15.2168L24.3228 10.9486L17.1414 3.98965L9.9599 -2.96926L5.82394 1.29898L13.0054 8.2579ZM17.1414 3.98965L24.1255 -3.16731L22.2928 -4.95577L15.3086 2.20119L8.32453 9.35815L10.1573 11.1466L17.1414 3.98965ZM15.3086 2.20119L22.2972 -4.95143C23.5271 -3.74977 24.3931 -2.18944 24.7465 -0.453745L14.9475 1.54107L5.14843 3.53588C5.60358 5.77165 6.721 7.7914 8.32008 9.35381L15.3086 2.20119ZM14.9475 1.54107L24.7465 -0.453745C25.1002 1.28368 24.916 3.08163 24.2283 4.70236L15.0227 0.796342L5.81707 -3.10968C4.92949 -1.01788 4.69294 1.29838 5.14843 3.53588L14.9475 1.54107ZM15.0227 0.796342L24.2283 4.70236C23.5418 6.32029 22.3964 7.66379 20.975 8.59161L15.509 0.217724L10.0429 -8.15616C8.18721 -6.94487 6.70344 -5.19867 5.81707 -3.10968L15.0227 0.796342ZM15.509 0.217724L20.975 8.59161C19.5562 9.51775 17.9129 9.99857 16.2512 10L16.2426 0L16.2341 -10C14.0499 -9.99812 11.896 -9.36577 10.0429 -8.15616L15.509 0.217724ZM16.2426 0V10H22.6783V0V-10H16.2426V0ZM22.6783 0V10C20.4545 10 18.274 9.14022 16.6288 7.53472L23.6129 0.377761L30.597 -6.7792C28.4561 -8.86845 25.6032 -10 22.6783 -10V0ZM23.6129 0.377761L16.6288 7.53472C14.9752 5.92113 14 3.67985 14 1.28976H24H34C34 -1.78446 32.7463 -4.68185 30.597 -6.7792L23.6129 0.377761ZM24 1.28976H14V7.57002H24H34V1.28976H24ZM24 7.57002L14 7.56101C14.0016 5.78424 14.5439 4.06865 15.5286 2.63211L23.7769 8.28598L32.0251 13.9399C33.3003 12.0795 33.9979 9.86566 34 7.57904L24 7.57002ZM23.7769 8.28598L15.5286 2.63211C16.5112 1.19863 17.8811 0.11775 19.4376 -0.511184L23.184 8.76054L26.9303 18.0323C28.9696 17.2083 30.7521 15.7971 32.0251 13.9399L23.7769 8.28598ZM23.184 8.76054L19.4376 -0.511184C20.9922 -1.13933 22.6891 -1.30023 24.324 -0.983301L22.4208 8.83393L20.5176 18.6512C22.6649 19.0674 24.893 18.8555 26.9303 18.0323L23.184 8.76054ZM22.4208 8.83393L24.324 -0.983301C25.9599 -0.666167 27.4953 0.122655 28.724 1.32016L21.7443 8.48146L14.7647 15.6428C16.363 17.2006 18.3693 18.2347 20.5176 18.6512L22.4208 8.83393ZM21.7443 8.48146L28.7314 1.32741L26.622 -0.732765L19.6349 6.42128L12.6478 13.5753L14.7572 15.6355L21.7443 8.48146ZM19.6349 6.42128L12.4517 -0.535797L7.6866 4.3842L14.8699 11.3413L22.0531 18.2984L26.8182 13.3784L19.6349 6.42128ZM14.8699 11.3413L7.77336 4.29572C8.46657 3.59751 9.28115 3.0529 10.1637 2.68148L14.0425 11.8986L17.9213 21.1157C19.4253 20.4828 20.8022 19.5593 21.9663 18.3868L14.8699 11.3413ZM14.0425 11.8986L10.1637 2.68148C11.0459 2.31023 11.986 2.11606 12.9318 2.104L13.0594 12.1032L13.1869 22.1024C14.8094 22.0817 16.4177 21.7484 17.9213 21.1157L14.0425 11.8986ZM13.0594 12.1032L12.9318 2.104C13.8776 2.09193 14.8217 2.26207 15.7118 2.61004L12.071 11.9237L8.43024 21.2374C9.94862 21.831 11.5644 22.1231 13.1869 22.1024L13.0594 12.1032ZM12.071 11.9237L15.7118 2.61004C16.6024 2.95817 17.4293 3.48064 18.139 4.15914L11.2291 11.3877L4.3191 18.6163C5.51232 19.7569 6.91148 20.6437 8.43024 21.2374L12.071 11.9237ZM11.2291 11.3877L18.2132 4.23075L18.2009 4.21871L11.2167 11.3757L4.23262 18.5326L4.24495 18.5447L11.2291 11.3877ZM11.2167 11.3757L18.1988 4.21668L15.1801 1.27259L8.19802 8.43158L1.21599 15.5906L4.23471 18.5347L11.2167 11.3757ZM8.19802 8.43158L1.21269 1.27581L-3.97533 6.34026L3.01 13.496L9.99533 20.6518L15.1834 15.5874L8.19802 8.43158Z" fill="white" mask="url(#path-1-inside-1_4152_17)"/>
<rect y="21" width="6" height="13" rx="3" fill="white"/>
<rect x="9" y="19" width="6" height="15" rx="3" fill="white"/>
<rect x="18" y="16" width="6" height="18" rx="3" fill="white"/>
</svg>
