<svg width="22" height="21" viewBox="0 0 22 21" fill="none" xmlns="http://www.w3.org/2000/svg">
<path d="M0 6.63123V11.0532H1.1V17.6833H0V20.9989H17.6L20.9 21L22 20.9989V17.6833H20.9V11.0532H22V6.63123L11 0L0 6.63123ZM4.4 17.6833V11.0532H6.6V17.6833H4.4ZM9.9 17.6833V11.0532H12.1V17.6833H9.9ZM17.6 17.6833H15.4V11.0532H17.6V17.6833ZM13.2 6.63123C13.1999 6.92158 13.1429 7.20907 13.0323 7.47729C12.9216 7.74551 12.7595 7.9892 12.5551 8.19446C12.3507 8.39971 12.1081 8.56251 11.8411 8.67355C11.574 8.7846 11.2879 8.84171 10.9989 8.84164C10.7099 8.84157 10.4238 8.78431 10.1568 8.67313C9.88987 8.56195 9.64733 8.39903 9.44304 8.19367C9.23875 7.98832 9.07672 7.74454 8.9662 7.47627C8.85568 7.20799 8.79883 6.92047 8.7989 6.63013C8.79905 6.04374 9.03103 5.48143 9.44382 5.0669C9.8566 4.65237 10.4164 4.41957 11 4.41971C11.5836 4.41986 12.1433 4.65294 12.5559 5.06768C12.9684 5.48242 13.2001 6.04485 13.2 6.63123Z" fill="white"/>
</svg>
